<mxfile host="app.diagrams.net" modified="2021-08-17T09:50:58.044Z" agent="5.0 (Macintosh; Intel Mac OS X 10_15_7) AppleWebKit/537.36 (KHTML, like Gecko) Chrome/86.0.4240.193 Safari/537.36" etag="ohOPdKWvdwHOe7PtJvo1" version="14.9.6" type="github">
  <diagram id="jiU2QDAw-WcFEGO7P7nP" name="Page-1">
    <mxGraphModel dx="946" dy="536" grid="1" gridSize="10" guides="1" tooltips="1" connect="1" arrows="1" fold="1" page="1" pageScale="1" pageWidth="827" pageHeight="1169" math="0" shadow="0">
      <root>
        <mxCell id="0" />
        <mxCell id="1" parent="0" />
        <mxCell id="-6ccJ7dj_ZqPezz7snTe-43" value="" style="rounded=0;whiteSpace=wrap;html=1;fillColor=#dae8fc;strokeColor=#6c8ebf;" vertex="1" parent="1">
          <mxGeometry x="310" y="180" width="40" height="40" as="geometry" />
        </mxCell>
        <mxCell id="-6ccJ7dj_ZqPezz7snTe-44" value="" style="rounded=0;whiteSpace=wrap;html=1;" vertex="1" parent="1">
          <mxGeometry x="350" y="180" width="40" height="40" as="geometry" />
        </mxCell>
        <mxCell id="-6ccJ7dj_ZqPezz7snTe-45" value="" style="rounded=0;whiteSpace=wrap;html=1;" vertex="1" parent="1">
          <mxGeometry x="390" y="180" width="40" height="40" as="geometry" />
        </mxCell>
        <mxCell id="-6ccJ7dj_ZqPezz7snTe-46" value="" style="rounded=0;whiteSpace=wrap;html=1;" vertex="1" parent="1">
          <mxGeometry x="430" y="180" width="40" height="40" as="geometry" />
        </mxCell>
        <mxCell id="-6ccJ7dj_ZqPezz7snTe-47" value="" style="rounded=0;whiteSpace=wrap;html=1;" vertex="1" parent="1">
          <mxGeometry x="310" y="220" width="40" height="40" as="geometry" />
        </mxCell>
        <mxCell id="-6ccJ7dj_ZqPezz7snTe-48" value="" style="rounded=0;whiteSpace=wrap;html=1;" vertex="1" parent="1">
          <mxGeometry x="350" y="220" width="40" height="40" as="geometry" />
        </mxCell>
        <mxCell id="-6ccJ7dj_ZqPezz7snTe-49" value="" style="rounded=0;whiteSpace=wrap;html=1;fillColor=#dae8fc;strokeColor=#6c8ebf;" vertex="1" parent="1">
          <mxGeometry x="390" y="220" width="40" height="40" as="geometry" />
        </mxCell>
        <mxCell id="-6ccJ7dj_ZqPezz7snTe-50" value="" style="rounded=0;whiteSpace=wrap;html=1;" vertex="1" parent="1">
          <mxGeometry x="430" y="220" width="40" height="40" as="geometry" />
        </mxCell>
        <mxCell id="-6ccJ7dj_ZqPezz7snTe-51" value="" style="rounded=0;whiteSpace=wrap;html=1;" vertex="1" parent="1">
          <mxGeometry x="310" y="260" width="40" height="40" as="geometry" />
        </mxCell>
        <mxCell id="-6ccJ7dj_ZqPezz7snTe-52" value="" style="rounded=0;whiteSpace=wrap;html=1;" vertex="1" parent="1">
          <mxGeometry x="350" y="260" width="40" height="40" as="geometry" />
        </mxCell>
        <mxCell id="-6ccJ7dj_ZqPezz7snTe-53" value="" style="rounded=0;whiteSpace=wrap;html=1;" vertex="1" parent="1">
          <mxGeometry x="390" y="260" width="40" height="40" as="geometry" />
        </mxCell>
        <mxCell id="-6ccJ7dj_ZqPezz7snTe-54" value="" style="rounded=0;whiteSpace=wrap;html=1;" vertex="1" parent="1">
          <mxGeometry x="430" y="260" width="40" height="40" as="geometry" />
        </mxCell>
        <mxCell id="-6ccJ7dj_ZqPezz7snTe-55" value="" style="rounded=0;whiteSpace=wrap;html=1;" vertex="1" parent="1">
          <mxGeometry x="310" y="300" width="40" height="40" as="geometry" />
        </mxCell>
        <mxCell id="-6ccJ7dj_ZqPezz7snTe-56" value="" style="rounded=0;whiteSpace=wrap;html=1;" vertex="1" parent="1">
          <mxGeometry x="350" y="300" width="40" height="40" as="geometry" />
        </mxCell>
        <mxCell id="-6ccJ7dj_ZqPezz7snTe-57" value="" style="rounded=0;whiteSpace=wrap;html=1;" vertex="1" parent="1">
          <mxGeometry x="390" y="300" width="40" height="40" as="geometry" />
        </mxCell>
        <mxCell id="-6ccJ7dj_ZqPezz7snTe-58" value="" style="rounded=0;whiteSpace=wrap;html=1;" vertex="1" parent="1">
          <mxGeometry x="430" y="300" width="40" height="40" as="geometry" />
        </mxCell>
        <mxCell id="-6ccJ7dj_ZqPezz7snTe-59" value="" style="rounded=0;whiteSpace=wrap;html=1;fillColor=#dae8fc;strokeColor=#6c8ebf;" vertex="1" parent="1">
          <mxGeometry x="510" y="180" width="40" height="40" as="geometry" />
        </mxCell>
        <mxCell id="-6ccJ7dj_ZqPezz7snTe-60" value="" style="rounded=0;whiteSpace=wrap;html=1;" vertex="1" parent="1">
          <mxGeometry x="550" y="180" width="40" height="40" as="geometry" />
        </mxCell>
        <mxCell id="-6ccJ7dj_ZqPezz7snTe-61" value="" style="rounded=0;whiteSpace=wrap;html=1;" vertex="1" parent="1">
          <mxGeometry x="590" y="180" width="40" height="40" as="geometry" />
        </mxCell>
        <mxCell id="-6ccJ7dj_ZqPezz7snTe-62" value="" style="rounded=0;whiteSpace=wrap;html=1;" vertex="1" parent="1">
          <mxGeometry x="630" y="180" width="40" height="40" as="geometry" />
        </mxCell>
        <mxCell id="-6ccJ7dj_ZqPezz7snTe-63" value="" style="rounded=0;whiteSpace=wrap;html=1;" vertex="1" parent="1">
          <mxGeometry x="510" y="220" width="40" height="40" as="geometry" />
        </mxCell>
        <mxCell id="-6ccJ7dj_ZqPezz7snTe-64" value="" style="rounded=0;whiteSpace=wrap;html=1;" vertex="1" parent="1">
          <mxGeometry x="550" y="220" width="40" height="40" as="geometry" />
        </mxCell>
        <mxCell id="-6ccJ7dj_ZqPezz7snTe-65" value="" style="rounded=0;whiteSpace=wrap;html=1;fillColor=#dae8fc;strokeColor=#6c8ebf;" vertex="1" parent="1">
          <mxGeometry x="590" y="220" width="40" height="40" as="geometry" />
        </mxCell>
        <mxCell id="-6ccJ7dj_ZqPezz7snTe-66" value="" style="rounded=0;whiteSpace=wrap;html=1;fillColor=#dae8fc;strokeColor=#6c8ebf;" vertex="1" parent="1">
          <mxGeometry x="630" y="220" width="40" height="40" as="geometry" />
        </mxCell>
        <mxCell id="-6ccJ7dj_ZqPezz7snTe-67" value="" style="rounded=0;whiteSpace=wrap;html=1;" vertex="1" parent="1">
          <mxGeometry x="510" y="260" width="40" height="40" as="geometry" />
        </mxCell>
        <mxCell id="-6ccJ7dj_ZqPezz7snTe-68" value="" style="rounded=0;whiteSpace=wrap;html=1;" vertex="1" parent="1">
          <mxGeometry x="550" y="260" width="40" height="40" as="geometry" />
        </mxCell>
        <mxCell id="-6ccJ7dj_ZqPezz7snTe-69" value="" style="rounded=0;whiteSpace=wrap;html=1;" vertex="1" parent="1">
          <mxGeometry x="590" y="260" width="40" height="40" as="geometry" />
        </mxCell>
        <mxCell id="-6ccJ7dj_ZqPezz7snTe-70" value="" style="rounded=0;whiteSpace=wrap;html=1;" vertex="1" parent="1">
          <mxGeometry x="630" y="260" width="40" height="40" as="geometry" />
        </mxCell>
        <mxCell id="-6ccJ7dj_ZqPezz7snTe-71" value="" style="rounded=0;whiteSpace=wrap;html=1;" vertex="1" parent="1">
          <mxGeometry x="510" y="300" width="40" height="40" as="geometry" />
        </mxCell>
        <mxCell id="-6ccJ7dj_ZqPezz7snTe-72" value="" style="rounded=0;whiteSpace=wrap;html=1;" vertex="1" parent="1">
          <mxGeometry x="550" y="300" width="40" height="40" as="geometry" />
        </mxCell>
        <mxCell id="-6ccJ7dj_ZqPezz7snTe-73" value="" style="rounded=0;whiteSpace=wrap;html=1;" vertex="1" parent="1">
          <mxGeometry x="590" y="300" width="40" height="40" as="geometry" />
        </mxCell>
        <mxCell id="-6ccJ7dj_ZqPezz7snTe-74" value="" style="rounded=0;whiteSpace=wrap;html=1;" vertex="1" parent="1">
          <mxGeometry x="630" y="300" width="40" height="40" as="geometry" />
        </mxCell>
        <mxCell id="-6ccJ7dj_ZqPezz7snTe-75" value="" style="rounded=0;whiteSpace=wrap;html=1;fillColor=#dae8fc;strokeColor=#6c8ebf;" vertex="1" parent="1">
          <mxGeometry x="710" y="180" width="40" height="40" as="geometry" />
        </mxCell>
        <mxCell id="-6ccJ7dj_ZqPezz7snTe-76" value="" style="rounded=0;whiteSpace=wrap;html=1;" vertex="1" parent="1">
          <mxGeometry x="750" y="180" width="40" height="40" as="geometry" />
        </mxCell>
        <mxCell id="-6ccJ7dj_ZqPezz7snTe-77" value="" style="rounded=0;whiteSpace=wrap;html=1;" vertex="1" parent="1">
          <mxGeometry x="790" y="180" width="40" height="40" as="geometry" />
        </mxCell>
        <mxCell id="-6ccJ7dj_ZqPezz7snTe-78" value="" style="rounded=0;whiteSpace=wrap;html=1;" vertex="1" parent="1">
          <mxGeometry x="830" y="180" width="40" height="40" as="geometry" />
        </mxCell>
        <mxCell id="-6ccJ7dj_ZqPezz7snTe-79" value="" style="rounded=0;whiteSpace=wrap;html=1;" vertex="1" parent="1">
          <mxGeometry x="710" y="220" width="40" height="40" as="geometry" />
        </mxCell>
        <mxCell id="-6ccJ7dj_ZqPezz7snTe-80" value="" style="rounded=0;whiteSpace=wrap;html=1;" vertex="1" parent="1">
          <mxGeometry x="750" y="220" width="40" height="40" as="geometry" />
        </mxCell>
        <mxCell id="-6ccJ7dj_ZqPezz7snTe-81" value="" style="rounded=0;whiteSpace=wrap;html=1;" vertex="1" parent="1">
          <mxGeometry x="790" y="220" width="40" height="40" as="geometry" />
        </mxCell>
        <mxCell id="-6ccJ7dj_ZqPezz7snTe-82" value="" style="rounded=0;whiteSpace=wrap;html=1;fillColor=#dae8fc;strokeColor=#6c8ebf;" vertex="1" parent="1">
          <mxGeometry x="830" y="220" width="40" height="40" as="geometry" />
        </mxCell>
        <mxCell id="-6ccJ7dj_ZqPezz7snTe-83" value="" style="rounded=0;whiteSpace=wrap;html=1;" vertex="1" parent="1">
          <mxGeometry x="710" y="260" width="40" height="40" as="geometry" />
        </mxCell>
        <mxCell id="-6ccJ7dj_ZqPezz7snTe-84" value="" style="rounded=0;whiteSpace=wrap;html=1;" vertex="1" parent="1">
          <mxGeometry x="750" y="260" width="40" height="40" as="geometry" />
        </mxCell>
        <mxCell id="-6ccJ7dj_ZqPezz7snTe-85" value="" style="rounded=0;whiteSpace=wrap;html=1;" vertex="1" parent="1">
          <mxGeometry x="790" y="260" width="40" height="40" as="geometry" />
        </mxCell>
        <mxCell id="-6ccJ7dj_ZqPezz7snTe-86" value="" style="rounded=0;whiteSpace=wrap;html=1;" vertex="1" parent="1">
          <mxGeometry x="830" y="260" width="40" height="40" as="geometry" />
        </mxCell>
        <mxCell id="-6ccJ7dj_ZqPezz7snTe-87" value="" style="rounded=0;whiteSpace=wrap;html=1;" vertex="1" parent="1">
          <mxGeometry x="710" y="300" width="40" height="40" as="geometry" />
        </mxCell>
        <mxCell id="-6ccJ7dj_ZqPezz7snTe-88" value="" style="rounded=0;whiteSpace=wrap;html=1;" vertex="1" parent="1">
          <mxGeometry x="750" y="300" width="40" height="40" as="geometry" />
        </mxCell>
        <mxCell id="-6ccJ7dj_ZqPezz7snTe-89" value="" style="rounded=0;whiteSpace=wrap;html=1;" vertex="1" parent="1">
          <mxGeometry x="790" y="300" width="40" height="40" as="geometry" />
        </mxCell>
        <mxCell id="-6ccJ7dj_ZqPezz7snTe-90" value="" style="rounded=0;whiteSpace=wrap;html=1;" vertex="1" parent="1">
          <mxGeometry x="830" y="300" width="40" height="40" as="geometry" />
        </mxCell>
        <mxCell id="-6ccJ7dj_ZqPezz7snTe-91" value="不撤销操作" style="text;html=1;strokeColor=none;fillColor=none;align=center;verticalAlign=middle;whiteSpace=wrap;rounded=0;" vertex="1" parent="1">
          <mxGeometry x="550" y="140" width="80" height="20" as="geometry" />
        </mxCell>
        <mxCell id="-6ccJ7dj_ZqPezz7snTe-93" value="撤销操作" style="text;html=1;strokeColor=none;fillColor=none;align=center;verticalAlign=middle;whiteSpace=wrap;rounded=0;" vertex="1" parent="1">
          <mxGeometry x="760" y="140" width="60" height="20" as="geometry" />
        </mxCell>
      </root>
    </mxGraphModel>
  </diagram>
</mxfile>
